<svg data-v-d3f97b9e="" xmlns="http://www.w3.org/2000/svg" viewBox="0 0 350 90"><!----><!----><!----><g data-v-d3f97b9e="" id="8013fd00-4d82-4c98-b36e-7fb303f87ae3" fill="black" transform="matrix(4.344677637719095,0,0,4.344677637719095,80.73099447956179,2.8349011526268555)"><path d="M0.72 13.78L0.72 5.63L3.45 5.63L3.62 6.89L3.69 6.89L3.69 6.89Q4.29 5.48 5.63 5.48L5.63 5.48L5.63 5.48Q6.39 5.48 6.81 5.81L6.81 5.81L6.81 5.81Q7.23 6.15 7.37 6.96L7.37 6.96L7.43 6.96L7.43 6.96Q7.79 6.22 8.34 5.85L8.34 5.85L8.34 5.85Q8.88 5.48 9.72 5.48L9.72 5.48L9.72 5.48Q10.68 5.48 11.22 6.08L11.22 6.08L11.22 6.08Q11.77 6.68 11.77 7.98L11.77 7.98L11.77 13.78L8.77 13.78L8.77 8.77L8.77 8.77Q8.77 8.45 8.71 8.29L8.71 8.29L8.71 8.29Q8.64 8.13 8.53 8.08L8.53 8.08L8.53 8.08Q8.42 8.03 8.24 8.03L8.24 8.03L8.24 8.03Q7.99 8.03 7.86 8.25L7.86 8.25L7.86 8.25Q7.73 8.47 7.73 8.96L7.73 8.96L7.73 13.78L4.72 13.78L4.72 8.78L4.72 8.78Q4.72 8.46 4.66 8.29L4.66 8.29L4.66 8.29Q4.60 8.13 4.49 8.08L4.49 8.08L4.49 8.08Q4.39 8.03 4.22 8.03L4.22 8.03L4.22 8.03Q3.73 8.03 3.73 8.96L3.73 8.96L3.73 13.78L0.72 13.78ZM15.97 5.48L15.97 5.48Q17.60 5.48 18.48 6.20L18.48 6.20L18.48 6.20Q19.36 6.93 19.36 8.57L19.36 8.57L19.36 13.78L16.78 13.78L16.65 12.70L16.51 12.70L16.51 12.70Q16.32 13.46 15.80 13.71L15.80 13.71L15.80 13.71Q15.27 13.96 14.72 13.96L14.72 13.96L14.72 13.96Q14.08 13.96 13.60 13.70L13.60 13.70L13.60 13.70Q13.13 13.43 12.87 12.94L12.87 12.94L12.87 12.94Q12.61 12.44 12.61 11.76L12.61 11.76L12.61 11.76Q12.61 10.98 12.94 10.41L12.94 10.41L12.94 10.41Q13.28 9.85 13.90 9.45L13.90 9.45L13.90 9.45Q14.38 9.15 15.05 8.94L15.05 8.94L15.05 8.94Q15.71 8.73 16.58 8.54L16.58 8.54L16.58 8.54Q16.62 8.35 16.62 8.18L16.62 8.18L16.62 8.18Q16.62 7.46 15.86 7.46L15.86 7.46L15.86 7.46Q15.44 7.46 15.21 7.79L15.21 7.79L15.21 7.79Q14.98 8.11 14.95 8.57L14.95 8.57L12.71 7.81L12.71 7.81Q12.83 7.04 13.29 6.52L13.29 6.52L13.29 6.52Q13.74 6.00 14.43 5.74L14.43 5.74L14.43 5.74Q15.12 5.48 15.97 5.48L15.97 5.48ZM15.87 11.98L15.87 11.98Q16.05 11.98 16.21 11.85L16.21 11.85L16.21 11.85Q16.37 11.72 16.50 11.50L16.50 11.50L16.50 10.33L16.50 10.33Q16.24 10.41 15.96 10.58L15.96 10.58L15.96 10.58Q15.33 10.96 15.33 11.41L15.33 11.41L15.33 11.41Q15.33 11.66 15.49 11.82L15.49 11.82L15.49 11.82Q15.65 11.98 15.87 11.98L15.87 11.98ZM20.64 16.61L20.64 5.63L23.19 5.63L23.35 7.10L23.43 7.10L23.43 7.10Q23.54 6.64 23.83 6.27L23.83 6.27L23.83 6.27Q24.13 5.89 24.55 5.68L24.55 5.68L24.55 5.68Q24.98 5.48 25.46 5.48L25.46 5.48L25.46 5.48Q26.75 5.48 27.47 6.52L27.47 6.52L27.47 6.52Q28.18 7.57 28.18 9.71L28.18 9.71L28.18 9.71Q28.18 11.12 27.87 12.08L27.87 12.08L27.87 12.08Q27.55 13.04 27.01 13.50L27.01 13.50L27.01 13.50Q26.47 13.96 25.80 13.96L25.80 13.96L25.80 13.96Q24.07 13.96 23.69 12.46L23.69 12.46L23.57 12.46L23.57 16.61L20.64 16.61ZM24.40 11.49L24.40 11.49Q25.13 11.49 25.13 9.66L25.13 9.66L25.13 9.66Q25.13 8.79 24.95 8.37L24.95 8.37L24.95 8.37Q24.77 7.94 24.40 7.94L24.40 7.94L24.40 7.94Q24.02 7.94 23.84 8.36L23.84 8.36L23.84 8.36Q23.65 8.78 23.65 9.66L23.65 9.66L23.65 9.66Q23.65 10.58 23.84 11.04L23.84 11.04L23.84 11.04Q24.02 11.49 24.40 11.49L24.40 11.49ZM29.42 13.78L29.42 2.80L33.54 2.80L33.54 2.80Q34.71 2.80 35.48 3.20L35.48 3.20L35.48 3.20Q36.25 3.59 36.62 4.27L36.62 4.27L36.62 4.27Q36.99 4.96 36.99 5.82L36.99 5.82L36.99 5.82Q36.99 6.69 36.60 7.23L36.60 7.23L36.60 7.23Q36.22 7.78 35.33 7.98L35.33 7.98L35.33 8.09L35.33 8.09Q36.40 8.22 36.91 8.89L36.91 8.89L36.91 8.89Q37.42 9.56 37.42 10.68L37.42 10.68L37.42 10.68Q37.42 12.16 36.52 12.97L36.52 12.97L36.52 12.97Q35.62 13.78 33.73 13.78L33.73 13.78L29.42 13.78ZM32.36 7.13L33.33 7.13L33.33 7.13Q33.76 7.13 34.03 6.87L34.03 6.87L34.03 6.87Q34.30 6.60 34.30 6.15L34.30 6.15L34.30 6.15Q34.30 5.69 34.02 5.43L34.02 5.43L34.02 5.43Q33.74 5.17 33.28 5.17L33.28 5.17L32.36 5.17L32.36 7.13ZM32.36 11.49L33.28 11.49L33.28 11.49Q33.84 11.49 34.14 11.18L34.14 11.18L34.14 11.18Q34.44 10.86 34.44 10.28L34.44 10.28L34.44 10.28Q34.44 9.15 33.28 9.15L33.28 9.15L32.36 9.15L32.36 11.49ZM41.62 13.96L41.62 13.96Q39.89 13.96 38.96 12.91L38.96 12.91L38.96 12.91Q38.03 11.87 38.03 9.73L38.03 9.73L38.03 9.73Q38.03 7.55 38.96 6.51L38.96 6.51L38.96 6.51Q39.89 5.48 41.62 5.48L41.62 5.48L41.62 5.48Q43.38 5.48 44.29 6.51L44.29 6.51L44.29 6.51Q45.20 7.54 45.20 9.73L45.20 9.73L45.20 9.73Q45.20 13.96 41.62 13.96L41.62 13.96ZM41.59 11.81L41.59 11.81Q41.85 11.81 42.01 11.65L42.01 11.65L42.01 11.65Q42.16 11.49 42.25 11.04L42.25 11.04L42.25 11.04Q42.34 10.58 42.34 9.71L42.34 9.71L42.34 9.71Q42.34 8.80 42.25 8.35L42.25 8.35L42.25 8.35Q42.16 7.90 42.01 7.75L42.01 7.75L42.01 7.75Q41.85 7.61 41.59 7.61L41.59 7.61L41.59 7.61Q41.36 7.61 41.21 7.76L41.21 7.76L41.21 7.76Q41.06 7.90 40.98 8.36L40.98 8.36L40.98 8.36Q40.89 8.81 40.89 9.71L40.89 9.71L40.89 9.71Q40.89 10.58 40.98 11.03L40.98 11.03L40.98 11.03Q41.06 11.49 41.21 11.65L41.21 11.65L41.21 11.65Q41.36 11.81 41.59 11.81L41.59 11.81ZM49.35 13.96L49.35 13.96Q47.62 13.96 46.69 12.91L46.69 12.91L46.69 12.91Q45.75 11.87 45.75 9.73L45.75 9.73L45.75 9.73Q45.75 7.55 46.68 6.51L46.68 6.51L46.68 6.51Q47.61 5.48 49.35 5.48L49.35 5.48L49.35 5.48Q51.11 5.48 52.01 6.51L52.01 6.51L52.01 6.51Q52.92 7.54 52.92 9.73L52.92 9.73L52.92 9.73Q52.92 13.96 49.35 13.96L49.35 13.96ZM49.31 11.81L49.31 11.81Q49.57 11.81 49.73 11.65L49.73 11.65L49.73 11.65Q49.89 11.49 49.98 11.04L49.98 11.04L49.98 11.04Q50.07 10.58 50.07 9.71L50.07 9.71L50.07 9.71Q50.07 8.80 49.98 8.35L49.98 8.35L49.98 8.35Q49.89 7.90 49.73 7.75L49.73 7.75L49.73 7.75Q49.57 7.61 49.31 7.61L49.31 7.61L49.31 7.61Q49.08 7.61 48.94 7.76L48.94 7.76L48.94 7.76Q48.79 7.90 48.70 8.36L48.70 8.36L48.70 8.36Q48.62 8.81 48.62 9.71L48.62 9.71L48.62 9.71Q48.62 10.58 48.70 11.03L48.70 11.03L48.70 11.03Q48.79 11.49 48.94 11.65L48.94 11.65L48.94 11.65Q49.08 11.81 49.31 11.81L49.31 11.81ZM61.80 13.78L58.61 13.78L57.53 10.42L56.94 10.83L56.94 13.78L53.94 13.78L53.94 2.80L56.94 2.80L56.94 8.31L58.60 5.63L61.70 5.63L59.53 8.37L61.80 13.78Z"></path></g><!----><g data-v-d3f97b9e="" id="39042be6-e6db-4bb6-9932-da1abbaab1ea" transform="matrix(1.0000308576144894,0,0,1.0000308576144894,-17.93013920921311,-5.000154345383699)" stroke="none" fill="black"><path d="M26.574 15.22a31.93 31.93 0 0 0-3.559 38.776L48.473 94.16a1.809 1.809 0 0 0 3.054 0l25.458-40.164A31.935 31.935 0 0 0 26.574 15.22zM50 8.616A28.304 28.304 0 0 1 73.93 52.06L50 89.815 26.07 52.06A28.304 28.304 0 0 1 50 8.616z"></path><path d="M50 53.817a16.875 16.875 0 1 0-16.875-16.875A16.894 16.894 0 0 0 50 53.817zm0-30.134a13.26 13.26 0 1 1-13.26 13.259A13.275 13.275 0 0 1 50 23.682z"></path></g><!----></svg>