<svg data-v-d3f97b9e="" xmlns="http://www.w3.org/2000/svg" viewBox="0 0 42.57277564920521 60"><!----><!----><!----><!----><g data-v-d3f97b9e="" id="6fba2a73-429b-4e55-b537-feac4c360915" transform="matrix(0.6666872384096596,0,0,0.6666872384096596,-12.044341819407052,-3.334674894247094)" stroke="none" fill="white"><path d="M26.574 15.22a31.93 31.93 0 0 0-3.559 38.776L48.473 94.16a1.809 1.809 0 0 0 3.054 0l25.458-40.164A31.935 31.935 0 0 0 26.574 15.22zM50 8.616A28.304 28.304 0 0 1 73.93 52.06L50 89.815 26.07 52.06A28.304 28.304 0 0 1 50 8.616z"></path><path d="M50 53.817a16.875 16.875 0 1 0-16.875-16.875A16.894 16.894 0 0 0 50 53.817zm0-30.134a13.26 13.26 0 1 1-13.26 13.259A13.275 13.275 0 0 1 50 23.682z"></path></g><!----></svg>