<svg data-v-29081953="" xmlns="http://www.w3.org/2000/svg" viewBox="0 0 300 300"><!----><defs data-v-29081953=""><!----></defs><rect data-v-29081953="" fill="#FFFFFF" x="0" y="0" width="300px" height="300px" class="logo-background-square"></rect><!----><defs data-v-29081953=""><!----></defs><g data-v-29081953="" id="141f0e86-6fd6-4d09-a630-f0e5a8f58bb2" fill="#FF982E" stroke="none" transform="matrix(2.4445198741687517,0,0,2.4445198741687517,27.78732253904591,27.772860469496912)"><path d="M26.574 15.22a31.93 31.93 0 0 0-3.559 38.776L48.473 94.16a1.809 1.809 0 0 0 3.054 0l25.458-40.164A31.935 31.935 0 0 0 26.574 15.22zM50 8.616A28.304 28.304 0 0 1 73.93 52.06L50 89.815 26.07 52.06A28.304 28.304 0 0 1 50 8.616z"></path><path d="M50 53.817a16.875 16.875 0 1 0-16.875-16.875A16.894 16.894 0 0 0 50 53.817zm0-30.134a13.26 13.26 0 1 1-13.26 13.259A13.275 13.275 0 0 1 50 23.682z"></path></g><!----></svg>